{
  "accessors": [
    {
      "bufferView": 2,
      "componentType": 5126,
      "count": 4606,
      "max": [
        0.37573200464248657,
        2.513098955154419,
        0.7682832479476929
      ],
      "min": [
        -0.37520307302474976,
        1.0219351053237915,
        -0.3784230351448059
      ],
      "type": "VEC3"
    },
    {
      "bufferView": 2,
      "byteOffset": 55272,
      "componentType": 5126,
      "count": 4606,
      "max": [
        0.9999266266822815,
        0.9999974370002747,
        0.9999734163284302
      ],
      "min": [
        -0.9999271035194397,
        -0.9999555349349976,
        -0.9999909400939941
      ],
      "type": "VEC3"
    },
    {
      "bufferView": 3,
      "componentType": 5126,
      "count": 4606,
      "max": [
        0.997129499912262,
        0.9621565937995911,
        0.9995883703231812,
        1.0
      ],
      "min": [
        -0.999957263469696,
        -0.9992402195930481,
        -0.9994903802871704,
        -1.0
      ],
      "type": "VEC4"
    },
    {
      "bufferView": 1,
      "componentType": 5126,
      "count": 4606,
      "max": [
        0.99853515625,
        0.6756149530410767
      ],
      "min": [
        0.00146484375,
        0.00146484375
      ],
      "type": "VEC2"
    },
    {
      "bufferView": 0,
      "componentType": 5125,
      "count": 27012,
      "type": "SCALAR"
    },
    {
      "bufferView": 2,
      "byteOffset": 110544,
      "componentType": 5126,
      "count": 152,
      "max": [
        0.2557876706123352,
        2.146176815032959,
        0.6754958033561707
      ],
      "min": [
        -0.2557876706123352,
        2.0033459663391113,
        0.5625993013381958
      ],
      "type": "VEC3"
    },
    {
      "bufferView": 2,
      "byteOffset": 112368,
      "componentType": 5126,
      "count": 152,
      "max": [
        0.7389240860939026,
        0.9972347617149353,
        0.9621738791465759
      ],
      "min": [
        -0.7389249801635742,
        -0.9959878921508789,
        0.02493146061897278
      ],
      "type": "VEC3"
    },
    {
      "bufferView": 1,
      "byteOffset": 36848,
      "componentType": 5126,
      "count": 152,
      "max": [
        0.9457133412361145,
        0.9597104787826538
      ],
      "min": [
        0.054286688566207886,
        0.04028952121734619
      ],
      "type": "VEC2"
    },
    {
      "bufferView": 0,
      "byteOffset": 108048,
      "componentType": 5125,
      "count": 528,
      "type": "SCALAR"
    },
    {
      "bufferView": 2,
      "byteOffset": 114192,
      "componentType": 5126,
      "count": 584,
      "max": [
        0.212931826710701,
        2.078726291656494,
        0.6180938482284546
      ],
      "min": [
        -0.212931826710701,
        1.9698339700698853,
        0.5547261238098145
      ],
      "type": "VEC3"
    },
    {
      "bufferView": 2,
      "byteOffset": 121200,
      "componentType": 5126,
      "count": 584,
      "max": [
        0.9878414273262024,
        0.9878402352333069,
        1.0
      ],
      "min": [
        -0.9878412485122681,
        -0.9878399968147278,
        0.15546347200870514
      ],
      "type": "VEC3"
    },
    {
      "bufferView": 3,
      "byteOffset": 73696,
      "componentType": 5126,
      "count": 584,
      "max": [
        1.0,
        0.8957362174987793,
        0.987841010093689,
        1.0
      ],
      "min": [
        -1.0,
        -0.8957361578941345,
        -0.9878421425819397,
        -1.0
      ],
      "type": "VEC4"
    },
    {
      "bufferView": 1,
      "byteOffset": 38064,
      "componentType": 5126,
      "count": 584,
      "max": [
        0.9950786232948303,
        0.9925302267074585
      ],
      "min": [
        0.004921138286590576,
        0.002372145652770996
      ],
      "type": "VEC2"
    },
    {
      "bufferView": 0,
      "byteOffset": 110160,
      "componentType": 5125,
      "count": 3168,
      "type": "SCALAR"
    }
  ],
  "asset": {
    "extras": {
      "author": "KhangNguyen189 (https://sketchfab.com/KhangNguyen189)",
      "license": "CC-BY-4.0 (http://creativecommons.org/licenses/by/4.0/)",
      "source": "https://sketchfab.com/3d-models/male-head-sculpt-ecf0df12ff9a4f8ea8218cbdb219b1c9",
      "title": "Male Head Sculpt"
    },
    "generator": "Sketchfab-11.30.0",
    "version": "2.0"
  },
  "bufferViews": [
    {
      "buffer": 0,
      "byteLength": 122832,
      "name": "floatBufferViews",
      "target": 34963
    },
    {
      "buffer": 0,
      "byteLength": 42736,
      "byteOffset": 122832,
      "byteStride": 8,
      "name": "floatBufferViews",
      "target": 34962
    },
    {
      "buffer": 0,
      "byteLength": 128208,
      "byteOffset": 165568,
      "byteStride": 12,
      "name": "floatBufferViews",
      "target": 34962
    },
    {
      "buffer": 0,
      "byteLength": 83040,
      "byteOffset": 293776,
      "byteStride": 16,
      "name": "floatBufferViews",
      "target": 34962
    }
  ],
  "buffers": [
    {
      "byteLength": 376816,
      "uri": "scene.bin"
    }
  ],
  "images": [
    {
      "uri": "textures/blinn3_baseColor.png"
    },
    {
      "uri": "textures/blinn3_metallicRoughness.png"
    },
    {
      "uri": "textures/blinn3_normal.png"
    },
    {
      "uri": "textures/blinn4_baseColor.png"
    },
    {
      "uri": "textures/blinn4_metallicRoughness.png"
    },
    {
      "uri": "textures/blinn5_baseColor.png"
    },
    {
      "uri": "textures/blinn5_metallicRoughness.png"
    },
    {
      "uri": "textures/blinn5_normal.png"
    }
  ],
  "materials": [
    {
      "name": "blinn3",
      "normalTexture": {
        "index": 2
      },
      "occlusionTexture": {
        "index": 1
      },
      "pbrMetallicRoughness": {
        "baseColorTexture": {
          "index": 0
        },
        "metallicRoughnessTexture": {
          "index": 1
        }
      }
    },
    {
      "alphaMode": "BLEND",
      "doubleSided": true,
      "name": "blinn4",
      "pbrMetallicRoughness": {
        "baseColorTexture": {
          "index": 3
        },
        "metallicFactor": 0.0,
        "metallicRoughnessTexture": {
          "index": 4
        }
      }
    },
    {
      "alphaMode": "BLEND",
      "doubleSided": true,
      "name": "blinn5",
      "normalTexture": {
        "index": 7
      },
      "pbrMetallicRoughness": {
        "baseColorTexture": {
          "index": 5
        },
        "metallicFactor": 0.0,
        "metallicRoughnessTexture": {
          "index": 6
        }
      }
    }
  ],
  "meshes": [
    {
      "name": "Head_blinn3_0",
      "primitives": [
        {
          "attributes": {
            "NORMAL": 1,
            "POSITION": 0,
            "TANGENT": 2,
            "TEXCOORD_0": 3
          },
          "indices": 4,
          "material": 0,
          "mode": 4
        }
      ]
    },
    {
      "name": "Brow_Lash_blinn4_0",
      "primitives": [
        {
          "attributes": {
            "NORMAL": 6,
            "POSITION": 5,
            "TEXCOORD_0": 7
          },
          "indices": 8,
          "material": 1,
          "mode": 4
        }
      ]
    },
    {
      "name": "Eyes_blinn5_0",
      "primitives": [
        {
          "attributes": {
            "NORMAL": 10,
            "POSITION": 9,
            "TANGENT": 11,
            "TEXCOORD_0": 12
          },
          "indices": 13,
          "material": 2,
          "mode": 4
        }
      ]
    }
  ],
  "nodes": [
    {
      "children": [
        1
      ],
      "matrix": [
        1.0,
        0.0,
        0.0,
        0.0,
        0.0,
        2.220446049250313e-16,
        -1.0,
        0.0,
        0.0,
        1.0,
        2.220446049250313e-16,
        0.0,
        0.0,
        0.0,
        0.0,
        1.0
      ],
      "name": "Sketchfab_model"
    },
    {
      "children": [
        2
      ],
      "matrix": [
        1.0,
        0.0,
        0.0,
        0.0,
        0.0,
        0.0,
        1.0,
        0.0,
        0.0,
        -1.0,
        0.0,
        0.0,
        0.0,
        0.0,
        0.0,
        1.0
      ],
      "name": "c9fc002a306947b0885bb12eb3b13336.fbx"
    },
    {
      "children": [
        3
      ],
      "name": "RootNode"
    },
    {
      "children": [
        4,
        6,
        8
      ],
      "name": "Leonidas"
    },
    {
      "children": [
        5
      ],
      "name": "Head"
    },
    {
      "mesh": 0,
      "name": "Head_blinn3_0"
    },
    {
      "children": [
        7
      ],
      "name": "Brow_Lash"
    },
    {
      "mesh": 1,
      "name": "Brow_Lash_blinn4_0"
    },
    {
      "children": [
        9
      ],
      "name": "Eyes"
    },
    {
      "mesh": 2,
      "name": "Eyes_blinn5_0"
    }
  ],
  "samplers": [
    {
      "magFilter": 9729,
      "minFilter": 9987,
      "wrapS": 10497,
      "wrapT": 10497
    }
  ],
  "scene": 0,
  "scenes": [
    {
      "name": "Sketchfab_Scene",
      "nodes": [
        0
      ]
    }
  ],
  "textures": [
    {
      "sampler": 0,
      "source": 0
    },
    {
      "sampler": 0,
      "source": 1
    },
    {
      "sampler": 0,
      "source": 2
    },
    {
      "sampler": 0,
      "source": 3
    },
    {
      "sampler": 0,
      "source": 4
    },
    {
      "sampler": 0,
      "source": 5
    },
    {
      "sampler": 0,
      "source": 6
    },
    {
      "sampler": 0,
      "source": 7
    }
  ]
}
