{
    "asset" : {
        "generator" : "Khronos glTF Blender I/O v1.6.16",
        "version" : "2.0"
    },
    "scene" : 0,
    "scenes" : [
        {
            "name" : "Scene",
            "nodes" : [
                0,
                1
            ]
        }
    ],
    "nodes" : [
        {
            "name" : "Light",
            "rotation" : [
                0.16907575726509094,
                0.7558803558349609,
                -0.27217137813568115,
                0.570947527885437
            ],
            "scale" : [
                0.23781242966651917,
                0.23781241476535797,
                0.23781244456768036
            ],
            "translation" : [
                1.4377635717391968,
                3.6539368629455566,
                -0.6222816705703735
            ]
        },
        {
            "mesh" : 0,
            "name" : "Wall_TV",
            "scale" : [
                0.23781238496303558,
                0.23781238496303558,
                0.23781238496303558
            ],
            "translation" : [
                -1.9015182256698608,
                2.249925136566162,
                -0.38317227363586426
            ]
        }
    ],
    "materials" : [
        {
            "doubleSided" : true,
            "name" : "Wall_TV_Body",
            "pbrMetallicRoughness" : {
                "baseColorFactor" : [
                    0,
                    0,
                    0,
                    1
                ],
                "metallicFactor" : 0,
                "roughnessFactor" : 0.5527864098548889
            }
        },
        {
            "doubleSided" : true,
            "name" : "Wall_TV_Screen",
            "pbrMetallicRoughness" : {
                "baseColorFactor" : [
                    0.501960813999176,
                    0.9058823585510254,
                    0.9921568632125854,
                    1
                ],
                "metallicFactor" : 0,
                "roughnessFactor" : 0.5527864098548889
            }
        },
        {
            "doubleSided" : true,
            "name" : "Wall_TV_Button",
            "pbrMetallicRoughness" : {
                "baseColorFactor" : [
                    0.007843137718737125,
                    0.9254902005195618,
                    0.2862745225429535,
                    1
                ],
                "metallicFactor" : 0,
                "roughnessFactor" : 0.5527864098548889
            }
        }
    ],
    "meshes" : [
        {
            "name" : "Wall_TV",
            "primitives" : [
                {
                    "attributes" : {
                        "POSITION" : 0,
                        "NORMAL" : 1,
                        "TEXCOORD_0" : 2
                    },
                    "indices" : 3,
                    "material" : 0
                },
                {
                    "attributes" : {
                        "POSITION" : 4,
                        "NORMAL" : 5,
                        "TEXCOORD_0" : 6
                    },
                    "indices" : 7,
                    "material" : 1
                },
                {
                    "attributes" : {
                        "POSITION" : 8,
                        "NORMAL" : 9,
                        "TEXCOORD_0" : 10
                    },
                    "indices" : 11,
                    "material" : 2
                }
            ]
        }
    ],
    "accessors" : [
        {
            "bufferView" : 0,
            "componentType" : 5126,
            "count" : 68,
            "max" : [
                10,
                6,
                1.894073486328125
            ],
            "min" : [
                -10,
                -6,
                -2.105926513671875
            ],
            "type" : "VEC3"
        },
        {
            "bufferView" : 1,
            "componentType" : 5126,
            "count" : 68,
            "type" : "VEC3"
        },
        {
            "bufferView" : 2,
            "componentType" : 5126,
            "count" : 68,
            "type" : "VEC2"
        },
        {
            "bufferView" : 3,
            "componentType" : 5123,
            "count" : 126,
            "type" : "SCALAR"
        },
        {
            "bufferView" : 4,
            "componentType" : 5126,
            "count" : 4,
            "max" : [
                8.5,
                4.5,
                0.894073486328125
            ],
            "min" : [
                -8.5,
                -4.5,
                0.894073486328125
            ],
            "type" : "VEC3"
        },
        {
            "bufferView" : 5,
            "componentType" : 5126,
            "count" : 4,
            "type" : "VEC3"
        },
        {
            "bufferView" : 6,
            "componentType" : 5126,
            "count" : 4,
            "type" : "VEC2"
        },
        {
            "bufferView" : 7,
            "componentType" : 5123,
            "count" : 6,
            "type" : "SCALAR"
        },
        {
            "bufferView" : 8,
            "componentType" : 5126,
            "count" : 48,
            "max" : [
                9.058134078979492,
                -4.898408889770508,
                2.1059296131134033
            ],
            "min" : [
                6.684906005859375,
                -5.398408889770508,
                1.9059295654296875
            ],
            "type" : "VEC3"
        },
        {
            "bufferView" : 9,
            "componentType" : 5126,
            "count" : 48,
            "type" : "VEC3"
        },
        {
            "bufferView" : 10,
            "componentType" : 5126,
            "count" : 48,
            "type" : "VEC2"
        },
        {
            "bufferView" : 11,
            "componentType" : 5123,
            "count" : 72,
            "type" : "SCALAR"
        }
    ],
    "bufferViews" : [
        {
            "buffer" : 0,
            "byteLength" : 816,
            "byteOffset" : 0
        },
        {
            "buffer" : 0,
            "byteLength" : 816,
            "byteOffset" : 816
        },
        {
            "buffer" : 0,
            "byteLength" : 544,
            "byteOffset" : 1632
        },
        {
            "buffer" : 0,
            "byteLength" : 252,
            "byteOffset" : 2176
        },
        {
            "buffer" : 0,
            "byteLength" : 48,
            "byteOffset" : 2428
        },
        {
            "buffer" : 0,
            "byteLength" : 48,
            "byteOffset" : 2476
        },
        {
            "buffer" : 0,
            "byteLength" : 32,
            "byteOffset" : 2524
        },
        {
            "buffer" : 0,
            "byteLength" : 12,
            "byteOffset" : 2556
        },
        {
            "buffer" : 0,
            "byteLength" : 576,
            "byteOffset" : 2568
        },
        {
            "buffer" : 0,
            "byteLength" : 576,
            "byteOffset" : 3144
        },
        {
            "buffer" : 0,
            "byteLength" : 384,
            "byteOffset" : 3720
        },
        {
            "buffer" : 0,
            "byteLength" : 144,
            "byteOffset" : 4104
        }
    ],
    "buffers" : [
        {
            "byteLength" : 4248,
            "uri" : "Wall_TV.bin"
        }
    ]
}
