{
    "asset" : {
        "generator" : "Khronos glTF Blender I/O v1.6.16",
        "version" : "2.0"
    },
    "scene" : 0,
    "scenes" : [
        {
            "name" : "Scene",
            "nodes" : [
                0,
                1
            ]
        }
    ],
    "nodes" : [
        {
            "name" : "Light",
            "rotation" : [
                0.16907575726509094,
                0.7558803558349609,
                -0.27217137813568115,
                0.570947527885437
            ],
            "scale" : [
                1.4796006679534912,
                1.4796006679534912,
                1.4796009063720703
            ],
            "translation" : [
                5.053730010986328,
                7.319610118865967,
                -1.246562123298645
            ]
        },
        {
            "mesh" : 0,
            "name" : "UV_Drip_Object",
            "scale" : [
                1.4796006679534912,
                1.4796006679534912,
                1.4796006679534912
            ],
            "translation" : [
                -0.977484941482544,
                -1.415748119354248,
                0.24110817909240723
            ]
        }
    ],
    "materials" : [
        {
            "doubleSided" : true,
            "name" : "UV_Drip_Wire",
            "pbrMetallicRoughness" : {
                "metallicFactor" : 0,
                "roughnessFactor" : 0.5527864098548889
            }
        },
        {
            "doubleSided" : true,
            "name" : "UV_Drip_Wheel",
            "pbrMetallicRoughness" : {
                "baseColorFactor" : [
                    0.03921568766236305,
                    0.16862745583057404,
                    0.9607843160629272,
                    1
                ],
                "metallicFactor" : 0,
                "roughnessFactor" : 0.5527864098548889
            }
        },
        {
            "doubleSided" : true,
            "name" : "UV_Drip_Bottom_Body_Metalic",
            "pbrMetallicRoughness" : {
                "baseColorFactor" : [
                    0.9960784316062927,
                    0.003921568859368563,
                    0.14509804546833038,
                    1
                ],
                "metallicFactor" : 0,
                "roughnessFactor" : 0.5527864098548889
            }
        },
        {
            "doubleSided" : true,
            "name" : "UV_Drip_Top_Body_Metalic",
            "pbrMetallicRoughness" : {
                "baseColorFactor" : [
                    0.027450980618596077,
                    0.9960784316062927,
                    0.003921568859368563,
                    1
                ],
                "metallicFactor" : 0,
                "roughnessFactor" : 0.5527864098548889
            }
        },
        {
            "doubleSided" : true,
            "name" : "UV_Drip_Bag",
            "pbrMetallicRoughness" : {
                "baseColorFactor" : [
                    0.9960784316062927,
                    0.8235294222831726,
                    0.007843137718737125,
                    1
                ],
                "metallicFactor" : 0,
                "roughnessFactor" : 0.5527864098548889
            }
        }
    ],
    "meshes" : [
        {
            "name" : "UV_Drip_Object",
            "primitives" : [
                {
                    "attributes" : {
                        "POSITION" : 0,
                        "NORMAL" : 1,
                        "TEXCOORD_0" : 2
                    },
                    "indices" : 3,
                    "material" : 0
                },
                {
                    "attributes" : {
                        "POSITION" : 4,
                        "NORMAL" : 5,
                        "TEXCOORD_0" : 6
                    },
                    "indices" : 7,
                    "material" : 1
                },
                {
                    "attributes" : {
                        "POSITION" : 8,
                        "NORMAL" : 9,
                        "TEXCOORD_0" : 10
                    },
                    "indices" : 11,
                    "material" : 2
                },
                {
                    "attributes" : {
                        "POSITION" : 12,
                        "NORMAL" : 13,
                        "TEXCOORD_0" : 14
                    },
                    "indices" : 15,
                    "material" : 3
                },
                {
                    "attributes" : {
                        "POSITION" : 16,
                        "NORMAL" : 17,
                        "TEXCOORD_0" : 18
                    },
                    "indices" : 19,
                    "material" : 4
                }
            ]
        }
    ],
    "accessors" : [
        {
            "bufferView" : 0,
            "componentType" : 5126,
            "count" : 24,
            "max" : [
                0.3920055329799652,
                17.896223068237305,
                0.24346256256103516
            ],
            "min" : [
                0.2920040190219879,
                6.404309272766113,
                0.1434621810913086
            ],
            "type" : "VEC3"
        },
        {
            "bufferView" : 1,
            "componentType" : 5126,
            "count" : 24,
            "type" : "VEC3"
        },
        {
            "bufferView" : 2,
            "componentType" : 5126,
            "count" : 24,
            "type" : "VEC2"
        },
        {
            "bufferView" : 3,
            "componentType" : 5123,
            "count" : 36,
            "type" : "SCALAR"
        },
        {
            "bufferView" : 4,
            "componentType" : 5126,
            "count" : 116,
            "max" : [
                5.5299530029296875,
                1.7326257228851318,
                10.507465362548828
            ],
            "min" : [
                -5.459699630737305,
                0.0005748271942138672,
                -0.4994316101074219
            ],
            "type" : "VEC3"
        },
        {
            "bufferView" : 5,
            "componentType" : 5126,
            "count" : 116,
            "type" : "VEC3"
        },
        {
            "bufferView" : 6,
            "componentType" : 5126,
            "count" : 116,
            "type" : "VEC2"
        },
        {
            "bufferView" : 7,
            "componentType" : 5123,
            "count" : 240,
            "type" : "SCALAR"
        },
        {
            "bufferView" : 8,
            "componentType" : 5126,
            "count" : 208,
            "max" : [
                5.050191879272461,
                22.754579544067383,
                10.013616561889648
            ],
            "min" : [
                -4.949808120727539,
                1.739109754562378,
                0.006816864013671875
            ],
            "type" : "VEC3"
        },
        {
            "bufferView" : 9,
            "componentType" : 5126,
            "count" : 208,
            "type" : "VEC3"
        },
        {
            "bufferView" : 10,
            "componentType" : 5126,
            "count" : 208,
            "type" : "VEC2"
        },
        {
            "bufferView" : 11,
            "componentType" : 5123,
            "count" : 324,
            "type" : "SCALAR"
        },
        {
            "bufferView" : 12,
            "componentType" : 5126,
            "count" : 228,
            "max" : [
                0.49715232849121094,
                23.238988876342773,
                9.79954719543457
            ],
            "min" : [
                -0.5028476715087891,
                21.238988876342773,
                -0.29404687881469727
            ],
            "type" : "VEC3"
        },
        {
            "bufferView" : 13,
            "componentType" : 5126,
            "count" : 228,
            "type" : "VEC3"
        },
        {
            "bufferView" : 14,
            "componentType" : 5126,
            "count" : 228,
            "type" : "VEC2"
        },
        {
            "bufferView" : 15,
            "componentType" : 5123,
            "count" : 540,
            "type" : "SCALAR"
        },
        {
            "bufferView" : 16,
            "componentType" : 5126,
            "count" : 155,
            "max" : [
                0.7603323459625244,
                22.122169494628906,
                0.5414576530456543
            ],
            "min" : [
                -0.7396681308746338,
                17.88490104675293,
                -0.15854310989379883
            ],
            "type" : "VEC3"
        },
        {
            "bufferView" : 17,
            "componentType" : 5126,
            "count" : 155,
            "type" : "VEC3"
        },
        {
            "bufferView" : 18,
            "componentType" : 5126,
            "count" : 155,
            "type" : "VEC2"
        },
        {
            "bufferView" : 19,
            "componentType" : 5123,
            "count" : 216,
            "type" : "SCALAR"
        }
    ],
    "bufferViews" : [
        {
            "buffer" : 0,
            "byteLength" : 288,
            "byteOffset" : 0
        },
        {
            "buffer" : 0,
            "byteLength" : 288,
            "byteOffset" : 288
        },
        {
            "buffer" : 0,
            "byteLength" : 192,
            "byteOffset" : 576
        },
        {
            "buffer" : 0,
            "byteLength" : 72,
            "byteOffset" : 768
        },
        {
            "buffer" : 0,
            "byteLength" : 1392,
            "byteOffset" : 840
        },
        {
            "buffer" : 0,
            "byteLength" : 1392,
            "byteOffset" : 2232
        },
        {
            "buffer" : 0,
            "byteLength" : 928,
            "byteOffset" : 3624
        },
        {
            "buffer" : 0,
            "byteLength" : 480,
            "byteOffset" : 4552
        },
        {
            "buffer" : 0,
            "byteLength" : 2496,
            "byteOffset" : 5032
        },
        {
            "buffer" : 0,
            "byteLength" : 2496,
            "byteOffset" : 7528
        },
        {
            "buffer" : 0,
            "byteLength" : 1664,
            "byteOffset" : 10024
        },
        {
            "buffer" : 0,
            "byteLength" : 648,
            "byteOffset" : 11688
        },
        {
            "buffer" : 0,
            "byteLength" : 2736,
            "byteOffset" : 12336
        },
        {
            "buffer" : 0,
            "byteLength" : 2736,
            "byteOffset" : 15072
        },
        {
            "buffer" : 0,
            "byteLength" : 1824,
            "byteOffset" : 17808
        },
        {
            "buffer" : 0,
            "byteLength" : 1080,
            "byteOffset" : 19632
        },
        {
            "buffer" : 0,
            "byteLength" : 1860,
            "byteOffset" : 20712
        },
        {
            "buffer" : 0,
            "byteLength" : 1860,
            "byteOffset" : 22572
        },
        {
            "buffer" : 0,
            "byteLength" : 1240,
            "byteOffset" : 24432
        },
        {
            "buffer" : 0,
            "byteLength" : 432,
            "byteOffset" : 25672
        }
    ],
    "buffers" : [
        {
            "byteLength" : 26104,
            "uri" : "UV_Drip_Object.bin"
        }
    ]
}
