{
    "asset" : {
        "generator" : "Khronos glTF Blender I/O v1.6.16",
        "version" : "2.0"
    },
    "scene" : 0,
    "scenes" : [
        {
            "name" : "Scene",
            "nodes" : [
                0,
                1
            ]
        }
    ],
    "nodes" : [
        {
            "name" : "Light",
            "rotation" : [
                0.16907575726509094,
                0.7558803558349609,
                -0.27217137813568115,
                0.570947527885437
            ],
            "scale" : [
                0.522807776927948,
                0.522807776927948,
                0.5228078961372375
            ],
            "translation" : [
                3.1036691665649414,
                4.495223045349121,
                -0.7655565738677979
            ]
        },
        {
            "mesh" : 0,
            "name" : "Small_Drawer_2",
            "scale" : [
                0.522807776927948,
                0.522807776927948,
                0.522807776927948
            ],
            "translation" : [
                0.9725761413574219,
                1.4086382389068604,
                -0.23989740014076233
            ]
        }
    ],
    "materials" : [
        {
            "doubleSided" : true,
            "name" : "Small_Inner_Drawer",
            "pbrMetallicRoughness" : {
                "baseColorFactor" : [
                    0.9960784316062927,
                    0.003921568859368563,
                    0.6117647290229797,
                    1
                ],
                "metallicFactor" : 0,
                "roughnessFactor" : 0.5527864098548889
            }
        },
        {
            "doubleSided" : true,
            "name" : "Small_Inner_Drawer_Handle",
            "pbrMetallicRoughness" : {
                "baseColorFactor" : [
                    0.1568627506494522,
                    0.9882352948188782,
                    0.019607843831181526,
                    1
                ],
                "metallicFactor" : 0,
                "roughnessFactor" : 0.5527864098548889
            }
        }
    ],
    "meshes" : [
        {
            "name" : "Small_Drawer_2",
            "primitives" : [
                {
                    "attributes" : {
                        "POSITION" : 0,
                        "NORMAL" : 1,
                        "TEXCOORD_0" : 2
                    },
                    "indices" : 3,
                    "material" : 0
                },
                {
                    "attributes" : {
                        "POSITION" : 4,
                        "NORMAL" : 5,
                        "TEXCOORD_0" : 6
                    },
                    "indices" : 7,
                    "material" : 1
                }
            ]
        }
    ],
    "accessors" : [
        {
            "bufferView" : 0,
            "componentType" : 5126,
            "count" : 56,
            "max" : [
                6.7540435791015625,
                7.202977180480957,
                -0.033541202545166016
            ],
            "min" : [
                0.004591464996337891,
                0.0013176202774047852,
                -7.952343463897705
            ],
            "type" : "VEC3"
        },
        {
            "bufferView" : 1,
            "componentType" : 5126,
            "count" : 56,
            "type" : "VEC3"
        },
        {
            "bufferView" : 2,
            "componentType" : 5126,
            "count" : 56,
            "type" : "VEC2"
        },
        {
            "bufferView" : 3,
            "componentType" : 5123,
            "count" : 84,
            "type" : "SCALAR"
        },
        {
            "bufferView" : 4,
            "componentType" : 5126,
            "count" : 24,
            "max" : [
                4.773637771606445,
                3.978429079055786,
                0.37215566635131836
            ],
            "min" : [
                2.1949992179870605,
                3.262140989303589,
                -0.20510101318359375
            ],
            "type" : "VEC3"
        },
        {
            "bufferView" : 5,
            "componentType" : 5126,
            "count" : 24,
            "type" : "VEC3"
        },
        {
            "bufferView" : 6,
            "componentType" : 5126,
            "count" : 24,
            "type" : "VEC2"
        },
        {
            "bufferView" : 7,
            "componentType" : 5123,
            "count" : 36,
            "type" : "SCALAR"
        }
    ],
    "bufferViews" : [
        {
            "buffer" : 0,
            "byteLength" : 672,
            "byteOffset" : 0
        },
        {
            "buffer" : 0,
            "byteLength" : 672,
            "byteOffset" : 672
        },
        {
            "buffer" : 0,
            "byteLength" : 448,
            "byteOffset" : 1344
        },
        {
            "buffer" : 0,
            "byteLength" : 168,
            "byteOffset" : 1792
        },
        {
            "buffer" : 0,
            "byteLength" : 288,
            "byteOffset" : 1960
        },
        {
            "buffer" : 0,
            "byteLength" : 288,
            "byteOffset" : 2248
        },
        {
            "buffer" : 0,
            "byteLength" : 192,
            "byteOffset" : 2536
        },
        {
            "buffer" : 0,
            "byteLength" : 72,
            "byteOffset" : 2728
        }
    ],
    "buffers" : [
        {
            "byteLength" : 2800,
            "uri" : "Small_Drawer_3.bin"
        }
    ]
}
