{
    "asset" : {
        "generator" : "Khronos glTF Blender I/O v1.6.16",
        "version" : "2.0"
    },
    "scene" : 0,
    "scenes" : [
        {
            "name" : "Scene",
            "nodes" : [
                0,
                1
            ]
        }
    ],
    "nodes" : [
        {
            "name" : "Light",
            "rotation" : [
                0.16907575726509094,
                0.7558803558349609,
                -0.27217137813568115,
                0.570947527885437
            ],
            "scale" : [
                2.302764415740967,
                2.3027641773223877,
                2.302764415740967
            ],
            "translation" : [
                6.731438636779785,
                9.749531745910645,
                -1.660388708114624
            ]
        },
        {
            "mesh" : 0,
            "name" : "Bed",
            "scale" : [
                2.3027641773223877,
                2.3027641773223877,
                2.3027641773223877
            ],
            "translation" : [
                -2.655193328857422,
                -3.845669746398926,
                0.6549347043037415
            ]
        }
    ],
    "materials" : [
        {
            "doubleSided" : true,
            "name" : "Bed_Wheel",
            "pbrMetallicRoughness" : {
                "baseColorFactor" : [
                    0.019607843831181526,
                    0.5647059082984924,
                    0.0313725508749485,
                    1
                ],
                "metallicFactor" : 0,
                "roughnessFactor" : 0.5527864098548889
            }
        },
        {
            "doubleSided" : true,
            "name" : "Mattress_Fabric",
            "pbrMetallicRoughness" : {
                "metallicFactor" : 0,
                "roughnessFactor" : 0.5527864098548889
            }
        },
        {
            "doubleSided" : true,
            "name" : "Bed_Bottom",
            "pbrMetallicRoughness" : {
                "baseColorFactor" : [
                    0.2235294133424759,
                    0.25882354378700256,
                    0.9686274528503418,
                    1
                ],
                "metallicFactor" : 0,
                "roughnessFactor" : 0.5527864098548889
            }
        }
    ],
    "meshes" : [
        {
            "name" : "Bed",
            "primitives" : [
                {
                    "attributes" : {
                        "POSITION" : 0,
                        "NORMAL" : 1,
                        "TEXCOORD_0" : 2
                    },
                    "indices" : 3,
                    "material" : 0
                },
                {
                    "attributes" : {
                        "POSITION" : 4,
                        "NORMAL" : 5,
                        "TEXCOORD_0" : 6
                    },
                    "indices" : 7,
                    "material" : 1
                },
                {
                    "attributes" : {
                        "POSITION" : 8,
                        "NORMAL" : 9,
                        "TEXCOORD_0" : 10
                    },
                    "indices" : 11,
                    "material" : 2
                }
            ]
        }
    ],
    "accessors" : [
        {
            "bufferView" : 0,
            "componentType" : 5126,
            "count" : 669,
            "max" : [
                0.5067192316055298,
                3.314734935760498,
                1.546722173690796
            ],
            "min" : [
                -14.189798355102539,
                0.05506563186645508,
                -30.32984161376953
            ],
            "type" : "VEC3"
        },
        {
            "bufferView" : 1,
            "componentType" : 5126,
            "count" : 669,
            "type" : "VEC3"
        },
        {
            "bufferView" : 2,
            "componentType" : 5126,
            "count" : 669,
            "type" : "VEC2"
        },
        {
            "bufferView" : 3,
            "componentType" : 5123,
            "count" : 960,
            "type" : "SCALAR"
        },
        {
            "bufferView" : 4,
            "componentType" : 5126,
            "count" : 24,
            "max" : [
                0.9709844589233398,
                9.715215682983398,
                1.6908477544784546
            ],
            "min" : [
                -14.626337051391602,
                6.684385299682617,
                -30.47891616821289
            ],
            "type" : "VEC3"
        },
        {
            "bufferView" : 5,
            "componentType" : 5126,
            "count" : 24,
            "type" : "VEC3"
        },
        {
            "bufferView" : 6,
            "componentType" : 5126,
            "count" : 24,
            "type" : "VEC2"
        },
        {
            "bufferView" : 7,
            "componentType" : 5123,
            "count" : 36,
            "type" : "SCALAR"
        },
        {
            "bufferView" : 8,
            "componentType" : 5126,
            "count" : 144,
            "max" : [
                2.0306901931762695,
                14.220478057861328,
                1.6908469200134277
            ],
            "min" : [
                -16.0006103515625,
                2.7394168376922607,
                -31.734432220458984
            ],
            "type" : "VEC3"
        },
        {
            "bufferView" : 9,
            "componentType" : 5126,
            "count" : 144,
            "type" : "VEC3"
        },
        {
            "bufferView" : 10,
            "componentType" : 5126,
            "count" : 144,
            "type" : "VEC2"
        },
        {
            "bufferView" : 11,
            "componentType" : 5123,
            "count" : 216,
            "type" : "SCALAR"
        }
    ],
    "bufferViews" : [
        {
            "buffer" : 0,
            "byteLength" : 8028,
            "byteOffset" : 0
        },
        {
            "buffer" : 0,
            "byteLength" : 8028,
            "byteOffset" : 8028
        },
        {
            "buffer" : 0,
            "byteLength" : 5352,
            "byteOffset" : 16056
        },
        {
            "buffer" : 0,
            "byteLength" : 1920,
            "byteOffset" : 21408
        },
        {
            "buffer" : 0,
            "byteLength" : 288,
            "byteOffset" : 23328
        },
        {
            "buffer" : 0,
            "byteLength" : 288,
            "byteOffset" : 23616
        },
        {
            "buffer" : 0,
            "byteLength" : 192,
            "byteOffset" : 23904
        },
        {
            "buffer" : 0,
            "byteLength" : 72,
            "byteOffset" : 24096
        },
        {
            "buffer" : 0,
            "byteLength" : 1728,
            "byteOffset" : 24168
        },
        {
            "buffer" : 0,
            "byteLength" : 1728,
            "byteOffset" : 25896
        },
        {
            "buffer" : 0,
            "byteLength" : 1152,
            "byteOffset" : 27624
        },
        {
            "buffer" : 0,
            "byteLength" : 432,
            "byteOffset" : 28776
        }
    ],
    "buffers" : [
        {
            "byteLength" : 29208,
            "uri" : "Bed.bin"
        }
    ]
}
