{
  "accessors": [
    {
      "bufferView": 2,
      "componentType": 5126,
      "count": 272,
      "max": [
        0.31733596324920654,
        0.4767390191555023,
        -0.0806410014629364
      ],
      "min": [
        -0.31733596324920654,
        -0.05843794345855713,
        -0.5076500177383423
      ],
      "type": "VEC3"
    },
    {
      "bufferView": 2,
      "byteOffset": 3264,
      "componentType": 5126,
      "count": 272,
      "max": [
        0.9340780973434448,
        0.9938551783561707,
        0.9377335906028748
      ],
      "min": [
        -0.9340782165527344,
        -0.999133288860321,
        -0.9962130188941956
      ],
      "type": "VEC3"
    },
    {
      "bufferView": 3,
      "componentType": 5126,
      "count": 272,
      "max": [
        0.9999428987503052,
        0.8486279845237732,
        0.6236167550086975,
        1.0
      ],
      "min": [
        -0.9999428987503052,
        -0.8298149704933167,
        -0.5824100375175476,
        -1.0
      ],
      "type": "VEC4"
    },
    {
      "bufferView": 1,
      "componentType": 5126,
      "count": 272,
      "max": [
        0.298248827457428,
        0.9770026803016663
      ],
      "min": [
        0.02132176049053669,
        0.8735193014144897
      ],
      "type": "VEC2"
    },
    {
      "bufferView": 1,
      "byteOffset": 2176,
      "componentType": 5126,
      "count": 272,
      "max": [
        0.298248827457428,
        0.9770026803016663
      ],
      "min": [
        0.02132176049053669,
        0.8735193014144897
      ],
      "type": "VEC2"
    },
    {
      "bufferView": 1,
      "byteOffset": 4352,
      "componentType": 5126,
      "count": 272,
      "max": [
        0.298248827457428,
        0.9770026803016663
      ],
      "min": [
        0.02132176049053669,
        0.8735193014144897
      ],
      "type": "VEC2"
    },
    {
      "bufferView": 1,
      "byteOffset": 6528,
      "componentType": 5126,
      "count": 272,
      "max": [
        0.298248827457428,
        0.9770026803016663
      ],
      "min": [
        0.02132176049053669,
        0.8735193014144897
      ],
      "type": "VEC2"
    },
    {
      "bufferView": 1,
      "byteOffset": 8704,
      "componentType": 5126,
      "count": 272,
      "max": [
        0.298248827457428,
        0.9770026803016663
      ],
      "min": [
        0.02132176049053669,
        0.8735193014144897
      ],
      "type": "VEC2"
    },
    {
      "bufferView": 1,
      "byteOffset": 10880,
      "componentType": 5126,
      "count": 272,
      "max": [
        0.298248827457428,
        0.9770026803016663
      ],
      "min": [
        0.02132176049053669,
        0.8735193014144897
      ],
      "type": "VEC2"
    },
    {
      "bufferView": 1,
      "byteOffset": 13056,
      "componentType": 5126,
      "count": 272,
      "max": [
        0.298248827457428,
        0.9770026803016663
      ],
      "min": [
        0.02132176049053669,
        0.8735193014144897
      ],
      "type": "VEC2"
    },
    {
      "bufferView": 1,
      "byteOffset": 15232,
      "componentType": 5126,
      "count": 272,
      "max": [
        0.298248827457428,
        0.9770026803016663
      ],
      "min": [
        0.02132176049053669,
        0.8735193014144897
      ],
      "type": "VEC2"
    },
    {
      "bufferView": 1,
      "byteOffset": 17408,
      "componentType": 5126,
      "count": 272,
      "max": [
        0.298248827457428,
        0.9770026803016663
      ],
      "min": [
        0.02132176049053669,
        0.8735193014144897
      ],
      "type": "VEC2"
    },
    {
      "bufferView": 1,
      "byteOffset": 19584,
      "componentType": 5126,
      "count": 272,
      "max": [
        0.298248827457428,
        0.9770026803016663
      ],
      "min": [
        0.02132176049053669,
        0.8735193014144897
      ],
      "type": "VEC2"
    },
    {
      "bufferView": 0,
      "componentType": 5125,
      "count": 1152,
      "type": "SCALAR"
    },
    {
      "bufferView": 2,
      "byteOffset": 6528,
      "componentType": 5126,
      "count": 2145,
      "max": [
        0.4604489803314209,
        1.4105160236358643,
        0.37574195861816406
      ],
      "min": [
        -0.4604489803314209,
        -0.3642579913139343,
        -1.0053009986877441
      ],
      "type": "VEC3"
    },
    {
      "bufferView": 2,
      "byteOffset": 32268,
      "componentType": 5126,
      "count": 2145,
      "max": [
        0.9990182518959045,
        0.9998841881752014,
        0.9998112916946411
      ],
      "min": [
        -0.9990183711051941,
        -0.9996188879013062,
        -0.9989636540412903
      ],
      "type": "VEC3"
    },
    {
      "bufferView": 3,
      "byteOffset": 4352,
      "componentType": 5126,
      "count": 2145,
      "max": [
        1.0,
        0.999521017074585,
        0.9984736442565918,
        -1.0
      ],
      "min": [
        -1.0,
        -0.9995397329330444,
        -0.9728432893753052,
        -1.0
      ],
      "type": "VEC4"
    },
    {
      "bufferView": 1,
      "byteOffset": 21760,
      "componentType": 5126,
      "count": 2145,
      "max": [
        0.9876394867897034,
        0.9898383617401123
      ],
      "min": [
        0.011742204427719116,
        0.011792421340942383
      ],
      "type": "VEC2"
    },
    {
      "bufferView": 1,
      "byteOffset": 38920,
      "componentType": 5126,
      "count": 2145,
      "max": [
        0.9876394867897034,
        0.9898383617401123
      ],
      "min": [
        0.011742204427719116,
        0.011792421340942383
      ],
      "type": "VEC2"
    },
    {
      "bufferView": 1,
      "byteOffset": 56080,
      "componentType": 5126,
      "count": 2145,
      "max": [
        0.9876394867897034,
        0.9898383617401123
      ],
      "min": [
        0.011742204427719116,
        0.011792421340942383
      ],
      "type": "VEC2"
    },
    {
      "bufferView": 1,
      "byteOffset": 73240,
      "componentType": 5126,
      "count": 2145,
      "max": [
        0.9876394867897034,
        0.9898383617401123
      ],
      "min": [
        0.011742204427719116,
        0.011792421340942383
      ],
      "type": "VEC2"
    },
    {
      "bufferView": 1,
      "byteOffset": 90400,
      "componentType": 5126,
      "count": 2145,
      "max": [
        0.9876394867897034,
        0.9898383617401123
      ],
      "min": [
        0.011742204427719116,
        0.011792421340942383
      ],
      "type": "VEC2"
    },
    {
      "bufferView": 1,
      "byteOffset": 107560,
      "componentType": 5126,
      "count": 2145,
      "max": [
        0.9876394867897034,
        0.9898383617401123
      ],
      "min": [
        0.011742204427719116,
        0.011792421340942383
      ],
      "type": "VEC2"
    },
    {
      "bufferView": 1,
      "byteOffset": 124720,
      "componentType": 5126,
      "count": 2145,
      "max": [
        0.9876394867897034,
        0.9898383617401123
      ],
      "min": [
        0.011742204427719116,
        0.011792421340942383
      ],
      "type": "VEC2"
    },
    {
      "bufferView": 1,
      "byteOffset": 141880,
      "componentType": 5126,
      "count": 2145,
      "max": [
        0.9876394867897034,
        0.9898383617401123
      ],
      "min": [
        0.011742204427719116,
        0.011792421340942383
      ],
      "type": "VEC2"
    },
    {
      "bufferView": 1,
      "byteOffset": 159040,
      "componentType": 5126,
      "count": 2145,
      "max": [
        0.9876394867897034,
        0.9898383617401123
      ],
      "min": [
        0.011742204427719116,
        0.011792421340942383
      ],
      "type": "VEC2"
    },
    {
      "bufferView": 1,
      "byteOffset": 176200,
      "componentType": 5126,
      "count": 2145,
      "max": [
        0.9876394867897034,
        0.9898383617401123
      ],
      "min": [
        0.011742204427719116,
        0.011792421340942383
      ],
      "type": "VEC2"
    },
    {
      "bufferView": 0,
      "byteOffset": 4608,
      "componentType": 5125,
      "count": 11124,
      "type": "SCALAR"
    },
    {
      "bufferView": 2,
      "byteOffset": 58008,
      "componentType": 5126,
      "count": 130,
      "max": [
        0.19597198069095612,
        -0.12931400537490845,
        0.05310702323913574
      ],
      "min": [
        -0.19597198069095612,
        -0.20747995376586914,
        -0.1032249927520752
      ],
      "type": "VEC3"
    },
    {
      "bufferView": 2,
      "byteOffset": 59568,
      "componentType": 5126,
      "count": 130,
      "max": [
        0.9807860255241394,
        -0.1950799524784088,
        0.9807859659194946
      ],
      "min": [
        -0.9807860255241394,
        -1.0,
        -0.9807860255241394
      ],
      "type": "VEC3"
    },
    {
      "bufferView": 3,
      "byteOffset": 38672,
      "componentType": 5126,
      "count": 130,
      "max": [
        0.8818801045417786,
        0.9748296737670898,
        -0.013118637725710869,
        1.0
      ],
      "min": [
        -0.8818802237510681,
        -0.9761700630187988,
        -0.6434306502342224,
        -1.0
      ],
      "type": "VEC4"
    },
    {
      "bufferView": 1,
      "byteOffset": 193360,
      "componentType": 5126,
      "count": 130,
      "max": [
        0.4016946256160736,
        0.8620152473449707
      ],
      "min": [
        0.32003873586654663,
        0.7806057929992676
      ],
      "type": "VEC2"
    },
    {
      "bufferView": 1,
      "byteOffset": 194400,
      "componentType": 5126,
      "count": 130,
      "max": [
        0.4016946256160736,
        0.8620152473449707
      ],
      "min": [
        0.32003873586654663,
        0.7806057929992676
      ],
      "type": "VEC2"
    },
    {
      "bufferView": 1,
      "byteOffset": 195440,
      "componentType": 5126,
      "count": 130,
      "max": [
        0.4016946256160736,
        0.8620152473449707
      ],
      "min": [
        0.32003873586654663,
        0.7806057929992676
      ],
      "type": "VEC2"
    },
    {
      "bufferView": 1,
      "byteOffset": 196480,
      "componentType": 5126,
      "count": 130,
      "max": [
        0.4016946256160736,
        0.8620152473449707
      ],
      "min": [
        0.32003873586654663,
        0.7806057929992676
      ],
      "type": "VEC2"
    },
    {
      "bufferView": 1,
      "byteOffset": 197520,
      "componentType": 5126,
      "count": 130,
      "max": [
        0.4016946256160736,
        0.8620152473449707
      ],
      "min": [
        0.32003873586654663,
        0.7806057929992676
      ],
      "type": "VEC2"
    },
    {
      "bufferView": 1,
      "byteOffset": 198560,
      "componentType": 5126,
      "count": 130,
      "max": [
        0.4016946256160736,
        0.8620152473449707
      ],
      "min": [
        0.32003873586654663,
        0.7806057929992676
      ],
      "type": "VEC2"
    },
    {
      "bufferView": 1,
      "byteOffset": 199600,
      "componentType": 5126,
      "count": 130,
      "max": [
        0.4016946256160736,
        0.8620152473449707
      ],
      "min": [
        0.32003873586654663,
        0.7806057929992676
      ],
      "type": "VEC2"
    },
    {
      "bufferView": 1,
      "byteOffset": 200640,
      "componentType": 5126,
      "count": 130,
      "max": [
        0.4016946256160736,
        0.8620152473449707
      ],
      "min": [
        0.32003873586654663,
        0.7806057929992676
      ],
      "type": "VEC2"
    },
    {
      "bufferView": 1,
      "byteOffset": 201680,
      "componentType": 5126,
      "count": 130,
      "max": [
        0.4016946256160736,
        0.8620152473449707
      ],
      "min": [
        0.32003873586654663,
        0.7806057929992676
      ],
      "type": "VEC2"
    },
    {
      "bufferView": 1,
      "byteOffset": 202720,
      "componentType": 5126,
      "count": 130,
      "max": [
        0.4016946256160736,
        0.8620152473449707
      ],
      "min": [
        0.32003873586654663,
        0.7806057929992676
      ],
      "type": "VEC2"
    },
    {
      "bufferView": 0,
      "byteOffset": 49104,
      "componentType": 5125,
      "count": 672,
      "type": "SCALAR"
    }
  ],
  "asset": {
    "extras": {
      "author": "Zacxophone (https://sketchfab.com/Zacxophone)",
      "license": "CC-BY-4.0 (http://creativecommons.org/licenses/by/4.0/)",
      "source": "https://sketchfab.com/3d-models/baby-shiba-shiba-texturing-challenge-55e6dbd9bf41468986a6d9ae2cf0d21c",
      "title": "Baby Shiba (Shiba texturing challenge)"
    },
    "generator": "Sketchfab-10.50.0",
    "version": "2.0"
  },
  "bufferViews": [
    {
      "buffer": 0,
      "byteLength": 51792,
      "name": "floatBufferViews",
      "target": 34963
    },
    {
      "buffer": 0,
      "byteLength": 203760,
      "byteOffset": 51792,
      "byteStride": 8,
      "name": "floatBufferViews",
      "target": 34962
    },
    {
      "buffer": 0,
      "byteLength": 61128,
      "byteOffset": 255552,
      "byteStride": 12,
      "name": "floatBufferViews",
      "target": 34962
    },
    {
      "buffer": 0,
      "byteLength": 40752,
      "byteOffset": 316680,
      "byteStride": 16,
      "name": "floatBufferViews",
      "target": 34962
    }
  ],
  "buffers": [
    {
      "byteLength": 357432,
      "uri": "scene.bin"
    }
  ],
  "images": [
    {
      "uri": "textures/default_baseColor.jpeg"
    },
    {
      "uri": "textures/default_metallicRoughness.png"
    },
    {
      "uri": "textures/default_normal.png"
    }
  ],
  "materials": [
    {
      "doubleSided": true,
      "name": "default",
      "normalTexture": {
        "index": 2
      },
      "occlusionTexture": {
        "index": 1
      },
      "pbrMetallicRoughness": {
        "baseColorTexture": {
          "index": 0
        },
        "metallicFactor": 0.0,
        "metallicRoughnessTexture": {
          "index": 1
        }
      }
    }
  ],
  "meshes": [
    {
      "name": "Group18985_default_0_default_0",
      "primitives": [
        {
          "attributes": {
            "NORMAL": 1,
            "POSITION": 0,
            "TANGENT": 2,
            "TEXCOORD_0": 3,
            "TEXCOORD_1": 4,
            "TEXCOORD_2": 5,
            "TEXCOORD_3": 6,
            "TEXCOORD_4": 7,
            "TEXCOORD_5": 8,
            "TEXCOORD_6": 9,
            "TEXCOORD_7": 10,
            "TEXCOORD_8": 11,
            "TEXCOORD_9": 12
          },
          "indices": 13,
          "material": 0,
          "mode": 4
        }
      ]
    },
    {
      "name": "Box002_default_0_default_0",
      "primitives": [
        {
          "attributes": {
            "NORMAL": 15,
            "POSITION": 14,
            "TANGENT": 16,
            "TEXCOORD_0": 17,
            "TEXCOORD_1": 18,
            "TEXCOORD_2": 19,
            "TEXCOORD_3": 20,
            "TEXCOORD_4": 21,
            "TEXCOORD_5": 22,
            "TEXCOORD_6": 23,
            "TEXCOORD_7": 24,
            "TEXCOORD_8": 25,
            "TEXCOORD_9": 26
          },
          "indices": 27,
          "material": 0,
          "mode": 4
        }
      ]
    },
    {
      "name": "Object001_default_0_default_0",
      "primitives": [
        {
          "attributes": {
            "NORMAL": 29,
            "POSITION": 28,
            "TANGENT": 30,
            "TEXCOORD_0": 31,
            "TEXCOORD_1": 32,
            "TEXCOORD_2": 33,
            "TEXCOORD_3": 34,
            "TEXCOORD_4": 35,
            "TEXCOORD_5": 36,
            "TEXCOORD_6": 37,
            "TEXCOORD_7": 38,
            "TEXCOORD_8": 39,
            "TEXCOORD_9": 40
          },
          "indices": 41,
          "material": 0,
          "mode": 4
        }
      ]
    }
  ],
  "nodes": [
    {
      "children": [
        1
      ],
      "matrix": [
        1.0,
        0.0,
        0.0,
        0.0,
        0.0,
        -1.0,
        -4.440892098500626e-16,
        0.0,
        0.0,
        4.440892098500626e-16,
        -1.0,
        0.0,
        0.0,
        0.8379071354866028,
        0.20835043489933033,
        1.0
      ],
      "name": "Sketchfab_model2"
    },
    {
      "children": [
        2
      ],
      "matrix": [
        1.0,
        0.0,
        0.0,
        0.0,
        0.0,
        0.0,
        1.0,
        0.0,
        0.0,
        -1.0,
        0.0,
        0.0,
        0.0,
        0.0,
        0.0,
        1.0
      ],
      "name": "20f567a700e341f681a24ab10dd38016.fbx"
    },
    {
      "children": [
        3
      ],
      "name": "RootNode"
    },
    {
      "children": [
        4
      ],
      "name": "RootNode (model correction matrix)"
    },
    {
      "children": [
        5
      ],
      "matrix": [
        1.0,
        0.0,
        0.0,
        0.0,
        0.0,
        2.220446049250313e-16,
        1.0,
        0.0,
        0.0,
        -1.0,
        2.220446049250313e-16,
        0.0,
        0.0,
        0.0,
        0.0,
        1.0
      ],
      "name": "1.FBX"
    },
    {
      "children": [
        6,
        9,
        12
      ],
      "name": "RootNode"
    },
    {
      "children": [
        7
      ],
      "matrix": [
        1.0,
        0.0,
        0.0,
        0.0,
        0.0,
        2.220446049250313e-16,
        -1.0,
        0.0,
        0.0,
        1.0,
        2.220446049250313e-16,
        0.0,
        0.0,
        0.0,
        0.0,
        1.0
      ],
      "name": "Group18985"
    },
    {
      "children": [
        8
      ],
      "name": "Group18985_default_0"
    },
    {
      "mesh": 0,
      "name": "Group18985_default_0_default_0"
    },
    {
      "children": [
        10
      ],
      "matrix": [
        1.0,
        0.0,
        0.0,
        0.0,
        0.0,
        2.220446049250313e-16,
        -1.0,
        0.0,
        0.0,
        1.0,
        2.220446049250313e-16,
        0.0,
        0.0,
        0.0,
        0.0,
        1.0
      ],
      "name": "Box002"
    },
    {
      "children": [
        11
      ],
      "name": "Box002_default_0"
    },
    {
      "mesh": 1,
      "name": "Box002_default_0_default_0"
    },
    {
      "children": [
        13
      ],
      "matrix": [
        1.0,
        0.0,
        0.0,
        0.0,
        0.0,
        2.220446049250313e-16,
        -1.0,
        0.0,
        0.0,
        1.0,
        2.220446049250313e-16,
        0.0,
        0.0,
        0.0,
        0.0,
        1.0
      ],
      "name": "Object001"
    },
    {
      "children": [
        14
      ],
      "name": "Object001_default_0"
    },
    {
      "mesh": 2,
      "name": "Object001_default_0_default_0"
    }
  ],
  "samplers": [
    {
      "magFilter": 9729,
      "minFilter": 9987,
      "wrapS": 10497,
      "wrapT": 10497
    }
  ],
  "scene": 0,
  "scenes": [
    {
      "name": "Sketchfab_Scene",
      "nodes": [
        0
      ]
    }
  ],
  "textures": [
    {
      "sampler": 0,
      "source": 0
    },
    {
      "sampler": 0,
      "source": 1
    },
    {
      "sampler": 0,
      "source": 2
    }
  ]
}
