{
  "accessors": [
    {
      "bufferView": 1,
      "componentType": 5126,
      "count": 456,
      "max": [
        2.564350128173828,
        2.991609573364258,
        4.533926963806152
      ],
      "min": [
        -2.564350128173828,
        -2.0941097736358643,
        0.09297752380371094
      ],
      "type": "VEC3"
    },
    {
      "bufferView": 1,
      "byteOffset": 5472,
      "componentType": 5126,
      "count": 456,
      "max": [
        0.9939383864402771,
        0.9935722947120667,
        0.9501734972000122
      ],
      "min": [
        -0.9939383864402771,
        -0.9923328161239624,
        -0.9998462796211243
      ],
      "type": "VEC3"
    },
    {
      "bufferView": 0,
      "componentType": 5125,
      "count": 684,
      "type": "SCALAR"
    },
    {
      "bufferView": 1,
      "byteOffset": 10944,
      "componentType": 5126,
      "count": 769,
      "max": [
        2.564350128173828,
        3.0447871685028076,
        5.066093921661377
      ],
      "min": [
        -2.564350128173828,
        -2.0941097736358643,
        0.11830329895019531
      ],
      "type": "VEC3"
    },
    {
      "bufferView": 1,
      "byteOffset": 20172,
      "componentType": 5126,
      "count": 769,
      "max": [
        1.0,
        0.9953661561012268,
        0.9942611455917358
      ],
      "min": [
        -0.9430325031280518,
        -0.9986705780029297,
        -0.9997444748878479
      ],
      "type": "VEC3"
    },
    {
      "bufferView": 0,
      "byteOffset": 2736,
      "componentType": 5125,
      "count": 1179,
      "type": "SCALAR"
    },
    {
      "bufferView": 1,
      "byteOffset": 29400,
      "componentType": 5126,
      "count": 80,
      "max": [
        1.9784201383590698,
        2.837462902069092,
        5.325515270233154
      ],
      "min": [
        -1.9784201383590698,
        1.4179381132125854,
        3.351818084716797
      ],
      "type": "VEC3"
    },
    {
      "bufferView": 1,
      "byteOffset": 30360,
      "componentType": 5126,
      "count": 80,
      "max": [
        0.7336469888687134,
        0.9709896445274353,
        0.9864715337753296
      ],
      "min": [
        -0.7336470484733582,
        -0.8244149684906006,
        -0.965012788772583
      ],
      "type": "VEC3"
    },
    {
      "bufferView": 0,
      "byteOffset": 7452,
      "componentType": 5125,
      "count": 120,
      "type": "SCALAR"
    },
    {
      "bufferView": 1,
      "byteOffset": 31320,
      "componentType": 5126,
      "count": 224,
      "max": [
        2.0951995849609375,
        3.0506834983825684,
        5.435560703277588
      ],
      "min": [
        -2.0951995849609375,
        1.844757318496704,
        4.059354782104492
      ],
      "type": "VEC3"
    },
    {
      "bufferView": 1,
      "byteOffset": 34008,
      "componentType": 5126,
      "count": 224,
      "max": [
        0.8256036639213562,
        0.9858582615852356,
        0.9837054014205933
      ],
      "min": [
        -0.8256036639213562,
        -0.9993906021118164,
        -0.9837049245834351
      ],
      "type": "VEC3"
    },
    {
      "bufferView": 0,
      "byteOffset": 7932,
      "componentType": 5125,
      "count": 348,
      "type": "SCALAR"
    }
  ],
  "asset": {
    "extras": {
      "author": "Maf'j Alvarez (https://sketchfab.com/blujay)",
      "license": "CC-BY-4.0 (http://creativecommons.org/licenses/by/4.0/)",
      "source": "https://sketchfab.com/3d-models/luna-the-lowpoly-dog-61abe4aabd9d4cb5bfdd817b98e8ef06",
      "title": "luna the lowpoly dog"
    },
    "generator": "Sketchfab-10.64.0",
    "version": "2.0"
  },
  "bufferViews": [
    {
      "buffer": 0,
      "byteLength": 9324,
      "name": "floatBufferViews",
      "target": 34963
    },
    {
      "buffer": 0,
      "byteLength": 36696,
      "byteOffset": 9324,
      "byteStride": 12,
      "name": "floatBufferViews",
      "target": 34962
    }
  ],
  "buffers": [
    {
      "byteLength": 46020,
      "uri": "scene.bin"
    }
  ],
  "extensionsRequired": [
    "KHR_materials_pbrSpecularGlossiness"
  ],
  "extensionsUsed": [
    "KHR_materials_pbrSpecularGlossiness"
  ],
  "materials": [
    {
      "extensions": {
        "KHR_materials_pbrSpecularGlossiness": {
          "diffuseFactor": [
            0.667845,
            0.604408,
            0.457227,
            1.0
          ],
          "glossinessFactor": 0.4,
          "specularFactor": [
            0.0,
            0.0,
            0.0
          ]
        }
      },
      "name": "yellow-white"
    },
    {
      "extensions": {
        "KHR_materials_pbrSpecularGlossiness": {
          "diffuseFactor": [
            0.8,
            0.8,
            0.8,
            1.0
          ],
          "glossinessFactor": 0.4,
          "specularFactor": [
            0.0,
            0.0,
            0.0
          ]
        }
      },
      "name": "white"
    },
    {
      "extensions": {
        "KHR_materials_pbrSpecularGlossiness": {
          "diffuseFactor": [
            0.318547,
            0.168269,
            0.0703601,
            1.0
          ],
          "glossinessFactor": 0.4,
          "specularFactor": [
            0.0,
            0.0,
            0.0
          ]
        }
      },
      "name": "brown"
    },
    {
      "extensions": {
        "KHR_materials_pbrSpecularGlossiness": {
          "diffuseFactor": [
            0.0,
            0.0,
            0.0,
            1.0
          ],
          "glossinessFactor": 0.0,
          "specularFactor": [
            0.0,
            0.0,
            0.0
          ]
        }
      },
      "name": "black"
    }
  ],
  "meshes": [
    {
      "name": "luna-dog_yellow-white_0",
      "primitives": [
        {
          "attributes": {
            "NORMAL": 1,
            "POSITION": 0
          },
          "indices": 2,
          "material": 0,
          "mode": 4
        }
      ]
    },
    {
      "name": "luna-dog_white_0",
      "primitives": [
        {
          "attributes": {
            "NORMAL": 4,
            "POSITION": 3
          },
          "indices": 5,
          "material": 1,
          "mode": 4
        }
      ]
    },
    {
      "name": "luna-dog_brown_0",
      "primitives": [
        {
          "attributes": {
            "NORMAL": 7,
            "POSITION": 6
          },
          "indices": 8,
          "material": 2,
          "mode": 4
        }
      ]
    },
    {
      "name": "luna-dog_black_0",
      "primitives": [
        {
          "attributes": {
            "NORMAL": 10,
            "POSITION": 9
          },
          "indices": 11,
          "material": 3,
          "mode": 4
        }
      ]
    }
  ],
  "nodes": [
    {
      "children": [
        1
      ],
      "matrix": [
        0.42863669991493225,
        0.0,
        0.0,
        0.0,
        0.0,
        9.517646668898033e-17,
        -0.42863669991493225,
        0.0,
        0.0,
        0.42863669991493225,
        9.517646668898033e-17,
        0.0,
        0.0,
        0.0,
        0.0,
        1.0
      ],
      "name": "Sketchfab_model"
    },
    {
      "children": [
        2
      ],
      "matrix": [
        1.0,
        0.0,
        0.0,
        0.0,
        0.0,
        0.0,
        1.0,
        0.0,
        0.0,
        -1.0,
        0.0,
        0.0,
        0.0,
        0.0,
        0.0,
        1.0
      ],
      "name": "fdf6c4567e71443bb609cae8496bfba2.fbx"
    },
    {
      "children": [
        3
      ],
      "name": "RootNode"
    },
    {
      "children": [
        4,
        5,
        6,
        7
      ],
      "matrix": [
        36.615745544433594,
        0.0,
        0.0,
        0.0,
        -0.0,
        -2.3606770404338327e-05,
        -144.89732360839653,
        0.0,
        0.0,
        99.23899841308463,
        -1.616808504362484e-05,
        0.0,
        -38.31097412109375,
        0.0,
        41.41216278076172,
        1.0
      ],
      "name": "luna-dog"
    },
    {
      "mesh": 0,
      "name": "luna-dog_yellow-white_0"
    },
    {
      "mesh": 1,
      "name": "luna-dog_white_0"
    },
    {
      "mesh": 2,
      "name": "luna-dog_brown_0"
    },
    {
      "mesh": 3,
      "name": "luna-dog_black_0"
    }
  ],
  "scene": 0,
  "scenes": [
    {
      "name": "Sketchfab_Scene",
      "nodes": [
        0
      ]
    }
  ]
}
