{
    "asset" : {
        "generator" : "Khronos glTF Blender I/O v1.6.16",
        "version" : "2.0"
    },
    "scene" : 0,
    "scenes" : [
        {
            "name" : "Scene",
            "nodes" : [
                0
            ]
        }
    ],
    "nodes" : [
        {
            "mesh" : 0,
            "name" : "Slide_Window",
            "scale" : [
                0.21532125771045685,
                0.21532125771045685,
                0.21532125771045685
            ],
            "translation" : [
                1.3250751495361328,
                1.9184284210205078,
                -0.30340641736984253
            ]
        }
    ],
    "materials" : [
        {
            "doubleSided" : true,
            "name" : "Window_Glass",
            "pbrMetallicRoughness" : {
                "baseColorFactor" : [
                    0.49803921580314636,
                    0.8156862854957581,
                    0.9803921580314636,
                    1
                ],
                "metallicFactor" : 0,
                "roughnessFactor" : 0.5527864098548889
            }
        },
        {
            "doubleSided" : true,
            "name" : "Window_Panel",
            "pbrMetallicRoughness" : {
                "baseColorFactor" : [
                    0.027450980618596077,
                    0.027450980618596077,
                    0.929411768913269,
                    1
                ],
                "metallicFactor" : 0,
                "roughnessFactor" : 0.5527864098548889
            }
        }
    ],
    "meshes" : [
        {
            "name" : "Slide_Window",
            "primitives" : [
                {
                    "attributes" : {
                        "POSITION" : 0,
                        "NORMAL" : 1,
                        "TEXCOORD_0" : 2
                    },
                    "indices" : 3,
                    "material" : 0
                },
                {
                    "attributes" : {
                        "POSITION" : 4,
                        "NORMAL" : 5,
                        "TEXCOORD_0" : 6
                    },
                    "indices" : 7,
                    "material" : 1
                }
            ]
        }
    ],
    "accessors" : [
        {
            "bufferView" : 0,
            "componentType" : 5126,
            "count" : 8,
            "max" : [
                7.340780735015869,
                8.39657211303711,
                0.08874756097793579
            ],
            "min" : [
                -7.340780735015869,
                -8.39657211303711,
                -0.08874988555908203
            ],
            "type" : "VEC3"
        },
        {
            "bufferView" : 1,
            "componentType" : 5126,
            "count" : 8,
            "type" : "VEC3"
        },
        {
            "bufferView" : 2,
            "componentType" : 5126,
            "count" : 8,
            "type" : "VEC2"
        },
        {
            "bufferView" : 3,
            "componentType" : 5123,
            "count" : 12,
            "type" : "SCALAR"
        },
        {
            "bufferView" : 4,
            "componentType" : 5126,
            "count" : 80,
            "max" : [
                7.8599700927734375,
                9.39657211303711,
                0.7273169755935669
            ],
            "min" : [
                -7.8599700927734375,
                -9.39657211303711,
                -0.7273193597793579
            ],
            "type" : "VEC3"
        },
        {
            "bufferView" : 5,
            "componentType" : 5126,
            "count" : 80,
            "type" : "VEC3"
        },
        {
            "bufferView" : 6,
            "componentType" : 5126,
            "count" : 80,
            "type" : "VEC2"
        },
        {
            "bufferView" : 7,
            "componentType" : 5123,
            "count" : 120,
            "type" : "SCALAR"
        }
    ],
    "bufferViews" : [
        {
            "buffer" : 0,
            "byteLength" : 96,
            "byteOffset" : 0
        },
        {
            "buffer" : 0,
            "byteLength" : 96,
            "byteOffset" : 96
        },
        {
            "buffer" : 0,
            "byteLength" : 64,
            "byteOffset" : 192
        },
        {
            "buffer" : 0,
            "byteLength" : 24,
            "byteOffset" : 256
        },
        {
            "buffer" : 0,
            "byteLength" : 960,
            "byteOffset" : 280
        },
        {
            "buffer" : 0,
            "byteLength" : 960,
            "byteOffset" : 1240
        },
        {
            "buffer" : 0,
            "byteLength" : 640,
            "byteOffset" : 2200
        },
        {
            "buffer" : 0,
            "byteLength" : 240,
            "byteOffset" : 2840
        }
    ],
    "buffers" : [
        {
            "byteLength" : 3080,
            "uri" : "Slide_Window.bin"
        }
    ]
}
