{
    "asset" : {
        "generator" : "Khronos glTF Blender I/O v1.6.16",
        "version" : "2.0"
    },
    "scene" : 0,
    "scenes" : [
        {
            "name" : "Scene",
            "nodes" : [
                0,
                1
            ]
        }
    ],
    "nodes" : [
        {
            "name" : "Light",
            "rotation" : [
                0.16907575726509094,
                0.7558803558349609,
                -0.27217137813568115,
                0.570947527885437
            ],
            "scale" : [
                3.1470963954925537,
                3.1470959186553955,
                3.147096872329712
            ],
            "translation" : [
                8.094828605651855,
                11.767241477966309,
                -0.7278420329093933
            ]
        },
        {
            "mesh" : 0,
            "name" : "Long_Table",
            "scale" : [
                0.19842739403247833,
                0.19842739403247833,
                0.19842739403247833
            ],
            "translation" : [
                0.13138699531555176,
                -0.9749984741210938,
                0.5118656754493713
            ]
        }
    ],
    "materials" : [
        {
            "doubleSided" : true,
            "name" : "Table_Bottom",
            "pbrMetallicRoughness" : {
                "baseColorFactor" : [
                    0.95686274766922,
                    0.003921568859368563,
                    0.9019607901573181,
                    1
                ],
                "metallicFactor" : 0,
                "roughnessFactor" : 0.5527864098548889
            }
        },
        {
            "doubleSided" : true,
            "name" : "Table_Top",
            "pbrMetallicRoughness" : {
                "baseColorFactor" : [
                    0.003921568859368563,
                    0.8823529481887817,
                    0.9882352948188782,
                    1
                ],
                "metallicFactor" : 0,
                "roughnessFactor" : 0.5527864098548889
            }
        }
    ],
    "meshes" : [
        {
            "name" : "Long_Table",
            "primitives" : [
                {
                    "attributes" : {
                        "POSITION" : 0,
                        "NORMAL" : 1,
                        "TEXCOORD_0" : 2
                    },
                    "indices" : 3,
                    "material" : 0
                },
                {
                    "attributes" : {
                        "POSITION" : 4,
                        "NORMAL" : 5,
                        "TEXCOORD_0" : 6
                    },
                    "indices" : 7,
                    "material" : 1
                }
            ]
        }
    ],
    "accessors" : [
        {
            "bufferView" : 0,
            "componentType" : 5126,
            "count" : 96,
            "max" : [
                34.777557373046875,
                11.885150909423828,
                15.611865997314453
            ],
            "min" : [
                9.298324584960938e-06,
                0.0001390203833580017,
                -1.7880222797393799
            ],
            "type" : "VEC3"
        },
        {
            "bufferView" : 1,
            "componentType" : 5126,
            "count" : 96,
            "type" : "VEC3"
        },
        {
            "bufferView" : 2,
            "componentType" : 5126,
            "count" : 96,
            "type" : "VEC2"
        },
        {
            "bufferView" : 3,
            "componentType" : 5123,
            "count" : 144,
            "type" : "SCALAR"
        },
        {
            "bufferView" : 4,
            "componentType" : 5126,
            "count" : 24,
            "max" : [
                35.803855895996094,
                12.747304916381836,
                16.04892349243164
            ],
            "min" : [
                -0.9552085399627686,
                10.766469955444336,
                -2.3528690338134766
            ],
            "type" : "VEC3"
        },
        {
            "bufferView" : 5,
            "componentType" : 5126,
            "count" : 24,
            "type" : "VEC3"
        },
        {
            "bufferView" : 6,
            "componentType" : 5126,
            "count" : 24,
            "type" : "VEC2"
        },
        {
            "bufferView" : 7,
            "componentType" : 5123,
            "count" : 36,
            "type" : "SCALAR"
        }
    ],
    "bufferViews" : [
        {
            "buffer" : 0,
            "byteLength" : 1152,
            "byteOffset" : 0
        },
        {
            "buffer" : 0,
            "byteLength" : 1152,
            "byteOffset" : 1152
        },
        {
            "buffer" : 0,
            "byteLength" : 768,
            "byteOffset" : 2304
        },
        {
            "buffer" : 0,
            "byteLength" : 288,
            "byteOffset" : 3072
        },
        {
            "buffer" : 0,
            "byteLength" : 288,
            "byteOffset" : 3360
        },
        {
            "buffer" : 0,
            "byteLength" : 288,
            "byteOffset" : 3648
        },
        {
            "buffer" : 0,
            "byteLength" : 192,
            "byteOffset" : 3936
        },
        {
            "buffer" : 0,
            "byteLength" : 72,
            "byteOffset" : 4128
        }
    ],
    "buffers" : [
        {
            "byteLength" : 4200,
            "uri" : "data:application/octet-stream;base64,"
        }
    ]
}
