{
    "asset" : {
        "generator" : "Khronos glTF Blender I/O v1.6.16",
        "version" : "2.0"
    },
    "scene" : 0,
    "scenes" : [
        {
            "name" : "Scene",
            "nodes" : [
                0,
                1
            ]
        }
    ],
    "nodes" : [
        {
            "name" : "Light",
            "rotation" : [
                0.16907575726509094,
                0.7558803558349609,
                -0.27217137813568115,
                0.570947527885437
            ],
            "scale" : [
                1.5403666496276855,
                1.5403664112091064,
                1.540366768836975
            ],
            "translation" : [
                5.098998546600342,
                7.499765396118164,
                -1.0864146947860718
            ]
        },
        {
            "mesh" : 0,
            "name" : "Sliding_Door",
            "scale" : [
                0.43382367491722107,
                0.43382367491722107,
                0.43382367491722107
            ]
        }
    ],
    "materials" : [
        {
            "doubleSided" : true,
            "name" : "Door_Body",
            "pbrMetallicRoughness" : {
                "baseColorFactor" : [
                    0.003921568859368563,
                    0.7372549176216125,
                    0.9764705896377563,
                    1
                ],
                "metallicFactor" : 0,
                "roughnessFactor" : 0.5527864098548889
            }
        },
        {
            "doubleSided" : true,
            "name" : "Door_Handle",
            "pbrMetallicRoughness" : {
                "baseColorFactor" : [
                    0.8666666746139526,
                    0.003921568859368563,
                    0.9960784316062927,
                    1
                ],
                "metallicFactor" : 0,
                "roughnessFactor" : 0.5527864098548889
            }
        }
    ],
    "meshes" : [
        {
            "name" : "Sliding_Door",
            "primitives" : [
                {
                    "attributes" : {
                        "POSITION" : 0,
                        "NORMAL" : 1,
                        "TEXCOORD_0" : 2
                    },
                    "indices" : 3,
                    "material" : 0
                },
                {
                    "attributes" : {
                        "POSITION" : 4,
                        "NORMAL" : 5,
                        "TEXCOORD_0" : 6
                    },
                    "indices" : 7,
                    "material" : 1
                }
            ]
        }
    ],
    "accessors" : [
        {
            "bufferView" : 0,
            "componentType" : 5126,
            "count" : 24,
            "max" : [
                20.00018310546875,
                40.00054168701172,
                -0.042417287826538086
            ],
            "min" : [
                0.00018310546875,
                0.0005435943603515625,
                -1.0424232482910156
            ],
            "type" : "VEC3"
        },
        {
            "bufferView" : 1,
            "componentType" : 5126,
            "count" : 24,
            "type" : "VEC3"
        },
        {
            "bufferView" : 2,
            "componentType" : 5126,
            "count" : 24,
            "type" : "VEC2"
        },
        {
            "bufferView" : 3,
            "componentType" : 5123,
            "count" : 36,
            "type" : "SCALAR"
        },
        {
            "bufferView" : 4,
            "componentType" : 5126,
            "count" : 144,
            "max" : [
                18.09857177734375,
                29.7741756439209,
                2.1623244285583496
            ],
            "min" : [
                17.09857177734375,
                13.397706985473633,
                -2.9149818420410156
            ],
            "type" : "VEC3"
        },
        {
            "bufferView" : 5,
            "componentType" : 5126,
            "count" : 144,
            "type" : "VEC3"
        },
        {
            "bufferView" : 6,
            "componentType" : 5126,
            "count" : 144,
            "type" : "VEC2"
        },
        {
            "bufferView" : 7,
            "componentType" : 5123,
            "count" : 216,
            "type" : "SCALAR"
        }
    ],
    "bufferViews" : [
        {
            "buffer" : 0,
            "byteLength" : 288,
            "byteOffset" : 0
        },
        {
            "buffer" : 0,
            "byteLength" : 288,
            "byteOffset" : 288
        },
        {
            "buffer" : 0,
            "byteLength" : 192,
            "byteOffset" : 576
        },
        {
            "buffer" : 0,
            "byteLength" : 72,
            "byteOffset" : 768
        },
        {
            "buffer" : 0,
            "byteLength" : 1728,
            "byteOffset" : 840
        },
        {
            "buffer" : 0,
            "byteLength" : 1728,
            "byteOffset" : 2568
        },
        {
            "buffer" : 0,
            "byteLength" : 1152,
            "byteOffset" : 4296
        },
        {
            "buffer" : 0,
            "byteLength" : 432,
            "byteOffset" : 5448
        }
    ],
    "buffers" : [
        {
            "byteLength" : 5880,
            "uri" : "Long_Table.bin"
        }
    ]
}
