{
    "asset" : {
        "generator" : "Khronos glTF Blender I/O v1.6.16",
        "version" : "2.0"
    },
    "scene" : 0,
    "scenes" : [
        {
            "name" : "Scene",
            "nodes" : [
                14,
                15,
                16
            ]
        }
    ],
    "nodes" : [
        {
            "mesh" : 0,
            "name" : "dog2"
        },
        {
            "children" : [
                0
            ],
            "name" : "Box002_default_0"
        },
        {
            "children" : [
                1
            ],
            "name" : "Box002",
            "rotation" : [
                -0.7071068286895752,
                0,
                0,
                0.7071068286895752
            ]
        },
        {
            "mesh" : 1,
            "name" : "Group18985_default_0_default_0"
        },
        {
            "children" : [
                3
            ],
            "name" : "Group18985_default_0"
        },
        {
            "children" : [
                4
            ],
            "name" : "Group18985",
            "rotation" : [
                -0.7071068286895752,
                0,
                0,
                0.7071068286895752
            ]
        },
        {
            "mesh" : 2,
            "name" : "Object001_default_0_default_0"
        },
        {
            "children" : [
                6
            ],
            "name" : "Object001_default_0"
        },
        {
            "children" : [
                7
            ],
            "name" : "Object001",
            "rotation" : [
                -0.7071068286895752,
                0,
                0,
                0.7071068286895752
            ]
        },
        {
            "children" : [
                2,
                5,
                8
            ],
            "name" : "RootNode.001"
        },
        {
            "children" : [
                9
            ],
            "name" : "1.FBX",
            "rotation" : [
                0.7071068286895752,
                0,
                0,
                0.7071068286895752
            ]
        },
        {
            "children" : [
                10
            ],
            "name" : "RootNode (model correction matrix)"
        },
        {
            "children" : [
                11
            ],
            "name" : "RootNode"
        },
        {
            "children" : [
                12
            ],
            "name" : "dog2.001",
            "rotation" : [
                0.7071068286895752,
                0,
                0,
                0.7071068286895752
            ]
        },
        {
            "children" : [
                13
            ],
            "name" : "dog2.002",
            "rotation" : [
                -1,
                0,
                0,
                2.220446049250313e-16
            ],
            "translation" : [
                0,
                0.8379071354866028,
                0.20835043489933014
            ]
        },
        {
            "name" : "Light",
            "rotation" : [
                0.16907575726509094,
                0.7558803558349609,
                -0.27217137813568115,
                0.570947527885437
            ],
            "translation" : [
                4.076245307922363,
                5.903861999511719,
                -1.0054539442062378
            ]
        },
        {
            "name" : "Camera",
            "rotation" : [
                0.483536034822464,
                0.33687159419059753,
                -0.20870360732078552,
                0.7804827094078064
            ],
            "translation" : [
                7.358891487121582,
                4.958309173583984,
                6.925790786743164
            ]
        }
    ],
    "materials" : [
        {
            "doubleSided" : true,
            "name" : "default",
            "normalTexture" : {
                "index" : 0
            },
            "occlusionTexture" : {
                "index" : 1
            },
            "pbrMetallicRoughness" : {
                "baseColorTexture" : {
                    "index" : 2
                },
                "metallicFactor" : 0,
                "metallicRoughnessTexture" : {
                    "index" : 1
                }
            }
        }
    ],
    "meshes" : [
        {
            "name" : "Box002_default_0_default_0",
            "primitives" : [
                {
                    "attributes" : {
                        "POSITION" : 0,
                        "NORMAL" : 1,
                        "TEXCOORD_0" : 2,
                        "TEXCOORD_1" : 3,
                        "TEXCOORD_2" : 4,
                        "TEXCOORD_3" : 5,
                        "TEXCOORD_4" : 6,
                        "TEXCOORD_5" : 7,
                        "TEXCOORD_6" : 8,
                        "TEXCOORD_7" : 9
                    },
                    "indices" : 10,
                    "material" : 0
                }
            ]
        },
        {
            "name" : "Group18985_default_0_default_0",
            "primitives" : [
                {
                    "attributes" : {
                        "POSITION" : 11,
                        "NORMAL" : 12,
                        "TEXCOORD_0" : 13,
                        "TEXCOORD_1" : 14,
                        "TEXCOORD_2" : 15,
                        "TEXCOORD_3" : 16,
                        "TEXCOORD_4" : 17,
                        "TEXCOORD_5" : 18,
                        "TEXCOORD_6" : 19,
                        "TEXCOORD_7" : 20
                    },
                    "indices" : 21,
                    "material" : 0
                }
            ]
        },
        {
            "name" : "Object001_default_0_default_0",
            "primitives" : [
                {
                    "attributes" : {
                        "POSITION" : 22,
                        "NORMAL" : 23,
                        "TEXCOORD_0" : 24,
                        "TEXCOORD_1" : 25,
                        "TEXCOORD_2" : 26,
                        "TEXCOORD_3" : 27,
                        "TEXCOORD_4" : 28,
                        "TEXCOORD_5" : 29,
                        "TEXCOORD_6" : 30,
                        "TEXCOORD_7" : 31
                    },
                    "indices" : 32,
                    "material" : 0
                }
            ]
        }
    ],
    "textures" : [
        {
            "sampler" : 0,
            "source" : 0
        },
        {
            "sampler" : 0,
            "source" : 1
        },
        {
            "sampler" : 0,
            "source" : 2
        }
    ],
    "images" : [
        {
            "mimeType" : "image/png",
            "name" : "default_normal",
            "uri" : "default_normal.png"
        },
        {
            "mimeType" : "image/png",
            "name" : "default_metallicRoughness",
            "uri" : "default_metallicRoughness.png"
        },
        {
            "mimeType" : "image/jpeg",
            "name" : "default_baseColor",
            "uri" : "default_baseColor.jpg"
        }
    ],
    "accessors" : [
        {
            "bufferView" : 0,
            "componentType" : 5126,
            "count" : 2145,
            "max" : [
                0.4604489803314209,
                1.4105160236358643,
                0.37574195861816406
            ],
            "min" : [
                -0.4604489803314209,
                -0.3642579913139343,
                -1.0053009986877441
            ],
            "type" : "VEC3"
        },
        {
            "bufferView" : 1,
            "componentType" : 5126,
            "count" : 2145,
            "type" : "VEC3"
        },
        {
            "bufferView" : 2,
            "componentType" : 5126,
            "count" : 2145,
            "type" : "VEC2"
        },
        {
            "bufferView" : 3,
            "componentType" : 5126,
            "count" : 2145,
            "type" : "VEC2"
        },
        {
            "bufferView" : 4,
            "componentType" : 5126,
            "count" : 2145,
            "type" : "VEC2"
        },
        {
            "bufferView" : 5,
            "componentType" : 5126,
            "count" : 2145,
            "type" : "VEC2"
        },
        {
            "bufferView" : 6,
            "componentType" : 5126,
            "count" : 2145,
            "type" : "VEC2"
        },
        {
            "bufferView" : 7,
            "componentType" : 5126,
            "count" : 2145,
            "type" : "VEC2"
        },
        {
            "bufferView" : 8,
            "componentType" : 5126,
            "count" : 2145,
            "type" : "VEC2"
        },
        {
            "bufferView" : 9,
            "componentType" : 5126,
            "count" : 2145,
            "type" : "VEC2"
        },
        {
            "bufferView" : 10,
            "componentType" : 5123,
            "count" : 11124,
            "type" : "SCALAR"
        },
        {
            "bufferView" : 11,
            "componentType" : 5126,
            "count" : 272,
            "max" : [
                0.31733596324920654,
                0.4767390191555023,
                -0.0806410014629364
            ],
            "min" : [
                -0.31733596324920654,
                -0.05843794345855713,
                -0.5076500177383423
            ],
            "type" : "VEC3"
        },
        {
            "bufferView" : 12,
            "componentType" : 5126,
            "count" : 272,
            "type" : "VEC3"
        },
        {
            "bufferView" : 13,
            "componentType" : 5126,
            "count" : 272,
            "type" : "VEC2"
        },
        {
            "bufferView" : 14,
            "componentType" : 5126,
            "count" : 272,
            "type" : "VEC2"
        },
        {
            "bufferView" : 15,
            "componentType" : 5126,
            "count" : 272,
            "type" : "VEC2"
        },
        {
            "bufferView" : 16,
            "componentType" : 5126,
            "count" : 272,
            "type" : "VEC2"
        },
        {
            "bufferView" : 17,
            "componentType" : 5126,
            "count" : 272,
            "type" : "VEC2"
        },
        {
            "bufferView" : 18,
            "componentType" : 5126,
            "count" : 272,
            "type" : "VEC2"
        },
        {
            "bufferView" : 19,
            "componentType" : 5126,
            "count" : 272,
            "type" : "VEC2"
        },
        {
            "bufferView" : 20,
            "componentType" : 5126,
            "count" : 272,
            "type" : "VEC2"
        },
        {
            "bufferView" : 21,
            "componentType" : 5123,
            "count" : 1152,
            "type" : "SCALAR"
        },
        {
            "bufferView" : 22,
            "componentType" : 5126,
            "count" : 130,
            "max" : [
                0.19597198069095612,
                -0.12931400537490845,
                0.05310702323913574
            ],
            "min" : [
                -0.19597198069095612,
                -0.20747995376586914,
                -0.1032249927520752
            ],
            "type" : "VEC3"
        },
        {
            "bufferView" : 23,
            "componentType" : 5126,
            "count" : 130,
            "type" : "VEC3"
        },
        {
            "bufferView" : 24,
            "componentType" : 5126,
            "count" : 130,
            "type" : "VEC2"
        },
        {
            "bufferView" : 25,
            "componentType" : 5126,
            "count" : 130,
            "type" : "VEC2"
        },
        {
            "bufferView" : 26,
            "componentType" : 5126,
            "count" : 130,
            "type" : "VEC2"
        },
        {
            "bufferView" : 27,
            "componentType" : 5126,
            "count" : 130,
            "type" : "VEC2"
        },
        {
            "bufferView" : 28,
            "componentType" : 5126,
            "count" : 130,
            "type" : "VEC2"
        },
        {
            "bufferView" : 29,
            "componentType" : 5126,
            "count" : 130,
            "type" : "VEC2"
        },
        {
            "bufferView" : 30,
            "componentType" : 5126,
            "count" : 130,
            "type" : "VEC2"
        },
        {
            "bufferView" : 31,
            "componentType" : 5126,
            "count" : 130,
            "type" : "VEC2"
        },
        {
            "bufferView" : 32,
            "componentType" : 5123,
            "count" : 672,
            "type" : "SCALAR"
        }
    ],
    "bufferViews" : [
        {
            "buffer" : 0,
            "byteLength" : 25740,
            "byteOffset" : 0
        },
        {
            "buffer" : 0,
            "byteLength" : 25740,
            "byteOffset" : 25740
        },
        {
            "buffer" : 0,
            "byteLength" : 17160,
            "byteOffset" : 51480
        },
        {
            "buffer" : 0,
            "byteLength" : 17160,
            "byteOffset" : 68640
        },
        {
            "buffer" : 0,
            "byteLength" : 17160,
            "byteOffset" : 85800
        },
        {
            "buffer" : 0,
            "byteLength" : 17160,
            "byteOffset" : 102960
        },
        {
            "buffer" : 0,
            "byteLength" : 17160,
            "byteOffset" : 120120
        },
        {
            "buffer" : 0,
            "byteLength" : 17160,
            "byteOffset" : 137280
        },
        {
            "buffer" : 0,
            "byteLength" : 17160,
            "byteOffset" : 154440
        },
        {
            "buffer" : 0,
            "byteLength" : 17160,
            "byteOffset" : 171600
        },
        {
            "buffer" : 0,
            "byteLength" : 22248,
            "byteOffset" : 188760
        },
        {
            "buffer" : 0,
            "byteLength" : 3264,
            "byteOffset" : 211008
        },
        {
            "buffer" : 0,
            "byteLength" : 3264,
            "byteOffset" : 214272
        },
        {
            "buffer" : 0,
            "byteLength" : 2176,
            "byteOffset" : 217536
        },
        {
            "buffer" : 0,
            "byteLength" : 2176,
            "byteOffset" : 219712
        },
        {
            "buffer" : 0,
            "byteLength" : 2176,
            "byteOffset" : 221888
        },
        {
            "buffer" : 0,
            "byteLength" : 2176,
            "byteOffset" : 224064
        },
        {
            "buffer" : 0,
            "byteLength" : 2176,
            "byteOffset" : 226240
        },
        {
            "buffer" : 0,
            "byteLength" : 2176,
            "byteOffset" : 228416
        },
        {
            "buffer" : 0,
            "byteLength" : 2176,
            "byteOffset" : 230592
        },
        {
            "buffer" : 0,
            "byteLength" : 2176,
            "byteOffset" : 232768
        },
        {
            "buffer" : 0,
            "byteLength" : 2304,
            "byteOffset" : 234944
        },
        {
            "buffer" : 0,
            "byteLength" : 1560,
            "byteOffset" : 237248
        },
        {
            "buffer" : 0,
            "byteLength" : 1560,
            "byteOffset" : 238808
        },
        {
            "buffer" : 0,
            "byteLength" : 1040,
            "byteOffset" : 240368
        },
        {
            "buffer" : 0,
            "byteLength" : 1040,
            "byteOffset" : 241408
        },
        {
            "buffer" : 0,
            "byteLength" : 1040,
            "byteOffset" : 242448
        },
        {
            "buffer" : 0,
            "byteLength" : 1040,
            "byteOffset" : 243488
        },
        {
            "buffer" : 0,
            "byteLength" : 1040,
            "byteOffset" : 244528
        },
        {
            "buffer" : 0,
            "byteLength" : 1040,
            "byteOffset" : 245568
        },
        {
            "buffer" : 0,
            "byteLength" : 1040,
            "byteOffset" : 246608
        },
        {
            "buffer" : 0,
            "byteLength" : 1040,
            "byteOffset" : 247648
        },
        {
            "buffer" : 0,
            "byteLength" : 1344,
            "byteOffset" : 248688
        }
    ],
    "samplers" : [
        {
            "magFilter" : 9729,
            "minFilter" : 9987
        }
    ],
    "buffers" : [
        {
            "byteLength" : 250032,
            "uri" : "scene.bin"
        }
    ]
}
